<?xml version="1.0" encoding="UTF-8" standalone="no"?>
<!DOCTYPE svg PUBLIC "-//W3C//DTD SVG 1.1//EN"
 "http://www.w3.org/Graphics/SVG/1.1/DTD/svg11.dtd">
<!-- Generated by graphviz version 2.40.1 (20161225.0304)
 -->
<!-- Title: dependencies Pages: 1 -->
<svg width="1440pt" height="211pt"
 viewBox="0.00 0.00 1440.00 211.00" xmlns="http://www.w3.org/2000/svg" xmlns:xlink="http://www.w3.org/1999/xlink">
<g id="graph0" class="graph" transform="scale(1 1) rotate(0) translate(4 207)">
<title>dependencies</title>
<polygon fill="#ffffff" stroke="transparent" points="-4,4 -4,-207 1436,-207 1436,4 -4,4"/>
<text text-anchor="start" x="695.0091" y="-42.4" font-family="sans-serif" font-weight="bold" font-size="14.00" fill="#000000">Legend</text>
<polygon fill="#ffffb3" stroke="transparent" points="482,-10 482,-30 502,-30 502,-10 482,-10"/>
<text text-anchor="start" x="505.629" y="-15.4" font-family="sans-serif" font-size="14.00" fill="#000000"> &#160;Declarations</text>
<polygon fill="#8dd3c7" stroke="transparent" points="595,-10 595,-30 615,-30 615,-10 595,-10"/>
<text text-anchor="start" x="618.7251" y="-15.4" font-family="sans-serif" font-size="14.00" fill="#000000"> &#160;Module</text>
<polygon fill="#80b1d3" stroke="transparent" points="681,-10 681,-30 701,-30 701,-10 681,-10"/>
<text text-anchor="start" x="704.7812" y="-15.4" font-family="sans-serif" font-size="14.00" fill="#000000"> &#160;Bootstrap</text>
<polygon fill="#fdb462" stroke="transparent" points="778,-10 778,-30 798,-30 798,-10 778,-10"/>
<text text-anchor="start" x="801.6732" y="-15.4" font-family="sans-serif" font-size="14.00" fill="#000000"> &#160;Providers</text>
<polygon fill="#fb8072" stroke="transparent" points="874,-10 874,-30 894,-30 894,-10 874,-10"/>
<text text-anchor="start" x="897.7258" y="-15.4" font-family="sans-serif" font-size="14.00" fill="#000000"> &#160;Exports</text>
<g id="clust1" class="cluster">
<title>cluster_OutModule</title>
<polygon fill="none" stroke="#000000" stroke-dasharray="1,5" points="8,-70 8,-195 1424,-195 1424,-70 8,-70"/>
</g>
<g id="clust2" class="cluster">
<title>cluster_OutModule_declarations</title>
<polygon fill="none" stroke="#000000" points="166,-78 166,-130 1416,-130 1416,-78 166,-78"/>
</g>
<g id="clust11" class="cluster">
<title>cluster_OutModule_imports</title>
<polygon fill="none" stroke="#000000" points="16,-78 16,-130 158,-130 158,-78 16,-78"/>
</g>
<!-- ContactoComponent -->
<g id="node1" class="node">
<title>ContactoComponent</title>
<polygon fill="#ffffb3" stroke="#000000" points="1407.8795,-122 1276.1205,-122 1276.1205,-86 1407.8795,-86 1407.8795,-122"/>
<text text-anchor="middle" x="1342" y="-99.8" font-family="Times,serif" font-size="14.00" fill="#000000">ContactoComponent</text>
</g>
<!-- OutModule -->
<g id="node9" class="node">
<title>OutModule</title>
<polygon fill="#8dd3c7" stroke="#000000" points="754.0483,-187 751.0483,-191 730.0483,-191 727.0483,-187 673.9517,-187 673.9517,-151 754.0483,-151 754.0483,-187"/>
<text text-anchor="middle" x="714" y="-164.8" font-family="Times,serif" font-size="14.00" fill="#000000">OutModule</text>
</g>
<!-- ContactoComponent&#45;&gt;OutModule -->
<g id="edge1" class="edge">
<title>ContactoComponent&#45;&gt;OutModule</title>
<path fill="none" stroke="#000000" d="M1342,-122.0109C1342,-144.4852 1342,-180 1342,-180 1342,-180 764.2396,-180 764.2396,-180"/>
<polygon fill="#000000" stroke="#000000" points="764.2396,-176.5001 754.2396,-180 764.2395,-183.5001 764.2396,-176.5001"/>
</g>
<!-- HomeComponent -->
<g id="node2" class="node">
<title>HomeComponent</title>
<polygon fill="#ffffb3" stroke="#000000" points="1257.5451,-122 1142.4549,-122 1142.4549,-86 1257.5451,-86 1257.5451,-122"/>
<text text-anchor="middle" x="1200" y="-99.8" font-family="Times,serif" font-size="14.00" fill="#000000">HomeComponent</text>
</g>
<!-- HomeComponent&#45;&gt;OutModule -->
<g id="edge2" class="edge">
<title>HomeComponent&#45;&gt;OutModule</title>
<path fill="none" stroke="#000000" d="M1200,-122.1289C1200,-142.5724 1200,-173 1200,-173 1200,-173 764.1849,-173 764.1849,-173"/>
<polygon fill="#000000" stroke="#000000" points="764.1849,-169.5001 754.1849,-173 764.1849,-176.5001 764.1849,-169.5001"/>
</g>
<!-- LoginComponent -->
<g id="node3" class="node">
<title>LoginComponent</title>
<polygon fill="#ffffb3" stroke="#000000" points="1124.2758,-122 1009.7242,-122 1009.7242,-86 1124.2758,-86 1124.2758,-122"/>
<text text-anchor="middle" x="1067" y="-99.8" font-family="Times,serif" font-size="14.00" fill="#000000">LoginComponent</text>
</g>
<!-- LoginComponent&#45;&gt;OutModule -->
<g id="edge3" class="edge">
<title>LoginComponent&#45;&gt;OutModule</title>
<path fill="none" stroke="#000000" d="M1067,-122.2667C1067,-140.5552 1067,-166 1067,-166 1067,-166 764.1499,-166 764.1499,-166"/>
<polygon fill="#000000" stroke="#000000" points="764.1499,-162.5001 754.1499,-166 764.1499,-169.5001 764.1499,-162.5001"/>
</g>
<!-- PreguntasFrecuentesComponent -->
<g id="node4" class="node">
<title>PreguntasFrecuentesComponent</title>
<polygon fill="#ffffb3" stroke="#000000" points="991.6769,-122 794.3231,-122 794.3231,-86 991.6769,-86 991.6769,-122"/>
<text text-anchor="middle" x="893" y="-99.8" font-family="Times,serif" font-size="14.00" fill="#000000">PreguntasFrecuentesComponent</text>
</g>
<!-- PreguntasFrecuentesComponent&#45;&gt;OutModule -->
<g id="edge4" class="edge">
<title>PreguntasFrecuentesComponent&#45;&gt;OutModule</title>
<path fill="none" stroke="#000000" d="M893,-122.0091C893,-138.0494 893,-159 893,-159 893,-159 764.1711,-159 764.1711,-159"/>
<polygon fill="#000000" stroke="#000000" points="764.1711,-155.5001 754.1711,-159 764.1711,-162.5001 764.1711,-155.5001"/>
</g>
<!-- ProcesoComponent -->
<g id="node5" class="node">
<title>ProcesoComponent</title>
<polygon fill="#ffffb3" stroke="#000000" points="776.6499,-122 651.3501,-122 651.3501,-86 776.6499,-86 776.6499,-122"/>
<text text-anchor="middle" x="714" y="-99.8" font-family="Times,serif" font-size="14.00" fill="#000000">ProcesoComponent</text>
</g>
<!-- ProcesoComponent&#45;&gt;OutModule -->
<g id="edge5" class="edge">
<title>ProcesoComponent&#45;&gt;OutModule</title>
<path fill="none" stroke="#000000" d="M714,-122.1061C714,-122.1061 714,-140.991 714,-140.991"/>
<polygon fill="#000000" stroke="#000000" points="710.5001,-140.9909 714,-150.991 717.5001,-140.991 710.5001,-140.9909"/>
</g>
<!-- RegistroComponent -->
<g id="node6" class="node">
<title>RegistroComponent</title>
<polygon fill="#ffffb3" stroke="#000000" points="633.2702,-122 504.7298,-122 504.7298,-86 633.2702,-86 633.2702,-122"/>
<text text-anchor="middle" x="569" y="-99.8" font-family="Times,serif" font-size="14.00" fill="#000000">RegistroComponent</text>
</g>
<!-- RegistroComponent&#45;&gt;OutModule -->
<g id="edge6" class="edge">
<title>RegistroComponent&#45;&gt;OutModule</title>
<path fill="none" stroke="#000000" d="M569,-122.0091C569,-138.0494 569,-159 569,-159 569,-159 663.6094,-159 663.6094,-159"/>
<polygon fill="#000000" stroke="#000000" points="663.6095,-162.5001 673.6094,-159 663.6094,-155.5001 663.6095,-162.5001"/>
</g>
<!-- ResetPassComponent -->
<g id="node7" class="node">
<title>ResetPassComponent</title>
<polygon fill="#ffffb3" stroke="#000000" points="486.8202,-122 349.1798,-122 349.1798,-86 486.8202,-86 486.8202,-122"/>
<text text-anchor="middle" x="418" y="-99.8" font-family="Times,serif" font-size="14.00" fill="#000000">ResetPassComponent</text>
</g>
<!-- ResetPassComponent&#45;&gt;OutModule -->
<g id="edge7" class="edge">
<title>ResetPassComponent&#45;&gt;OutModule</title>
<path fill="none" stroke="#000000" d="M418,-122.2667C418,-140.5552 418,-166 418,-166 418,-166 663.7721,-166 663.7721,-166"/>
<polygon fill="#000000" stroke="#000000" points="663.7721,-169.5001 673.7721,-166 663.772,-162.5001 663.7721,-169.5001"/>
</g>
<!-- UserManagerComponent -->
<g id="node8" class="node">
<title>UserManagerComponent</title>
<polygon fill="#ffffb3" stroke="#000000" points="331.5086,-122 174.4914,-122 174.4914,-86 331.5086,-86 331.5086,-122"/>
<text text-anchor="middle" x="253" y="-99.8" font-family="Times,serif" font-size="14.00" fill="#000000">UserManagerComponent</text>
</g>
<!-- UserManagerComponent&#45;&gt;OutModule -->
<g id="edge8" class="edge">
<title>UserManagerComponent&#45;&gt;OutModule</title>
<path fill="none" stroke="#000000" d="M253,-122.1289C253,-142.5724 253,-173 253,-173 253,-173 663.8957,-173 663.8957,-173"/>
<polygon fill="#000000" stroke="#000000" points="663.8958,-176.5001 673.8957,-173 663.8957,-169.5001 663.8958,-176.5001"/>
</g>
<!-- OutRoutingModule -->
<g id="node10" class="node">
<title>OutRoutingModule</title>
<polygon fill="#8dd3c7" stroke="#000000" points="149.6652,-122 146.6652,-126 125.6652,-126 122.6652,-122 24.3348,-122 24.3348,-86 149.6652,-86 149.6652,-122"/>
<text text-anchor="middle" x="87" y="-99.8" font-family="Times,serif" font-size="14.00" fill="#000000">OutRoutingModule</text>
</g>
<!-- OutRoutingModule&#45;&gt;OutModule -->
<g id="edge9" class="edge">
<title>OutRoutingModule&#45;&gt;OutModule</title>
<path fill="none" stroke="#000000" d="M87,-122.0109C87,-144.4852 87,-180 87,-180 87,-180 663.8245,-180 663.8245,-180"/>
<polygon fill="#000000" stroke="#000000" points="663.8246,-183.5001 673.8245,-180 663.8245,-176.5001 663.8246,-183.5001"/>
</g>
</g>
</svg>
