<?xml version="1.0" encoding="UTF-8" standalone="no"?>
<!DOCTYPE svg PUBLIC "-//W3C//DTD SVG 1.1//EN"
 "http://www.w3.org/Graphics/SVG/1.1/DTD/svg11.dtd">
<!-- Generated by graphviz version 2.40.1 (20161225.0304)
 -->
<!-- Title: dependencies Pages: 1 -->
<svg width="1161pt" height="211pt"
 viewBox="0.00 0.00 1161.00 211.00" xmlns="http://www.w3.org/2000/svg" xmlns:xlink="http://www.w3.org/1999/xlink">
<g id="graph0" class="graph" transform="scale(1 1) rotate(0) translate(4 207)">
<title>dependencies</title>
<polygon fill="#ffffff" stroke="transparent" points="-4,4 -4,-207 1157,-207 1157,4 -4,4"/>
<text text-anchor="start" x="555.5091" y="-42.4" font-family="sans-serif" font-weight="bold" font-size="14.00" fill="#000000">Legend</text>
<polygon fill="#ffffb3" stroke="transparent" points="342.5,-10 342.5,-30 362.5,-30 362.5,-10 342.5,-10"/>
<text text-anchor="start" x="366.129" y="-15.4" font-family="sans-serif" font-size="14.00" fill="#000000"> &#160;Declarations</text>
<polygon fill="#8dd3c7" stroke="transparent" points="455.5,-10 455.5,-30 475.5,-30 475.5,-10 455.5,-10"/>
<text text-anchor="start" x="479.2251" y="-15.4" font-family="sans-serif" font-size="14.00" fill="#000000"> &#160;Module</text>
<polygon fill="#80b1d3" stroke="transparent" points="541.5,-10 541.5,-30 561.5,-30 561.5,-10 541.5,-10"/>
<text text-anchor="start" x="565.2812" y="-15.4" font-family="sans-serif" font-size="14.00" fill="#000000"> &#160;Bootstrap</text>
<polygon fill="#fdb462" stroke="transparent" points="638.5,-10 638.5,-30 658.5,-30 658.5,-10 638.5,-10"/>
<text text-anchor="start" x="662.1732" y="-15.4" font-family="sans-serif" font-size="14.00" fill="#000000"> &#160;Providers</text>
<polygon fill="#fb8072" stroke="transparent" points="734.5,-10 734.5,-30 754.5,-30 754.5,-10 734.5,-10"/>
<text text-anchor="start" x="758.2258" y="-15.4" font-family="sans-serif" font-size="14.00" fill="#000000"> &#160;Exports</text>
<g id="clust1" class="cluster">
<title>cluster_SolicitudesModule</title>
<polygon fill="none" stroke="#000000" stroke-dasharray="1,5" points="8,-70 8,-195 1145,-195 1145,-70 8,-70"/>
</g>
<g id="clust2" class="cluster">
<title>cluster_SolicitudesModule_declarations</title>
<polygon fill="none" stroke="#000000" points="380,-78 380,-130 1137,-130 1137,-78 380,-78"/>
</g>
<g id="clust7" class="cluster">
<title>cluster_SolicitudesModule_imports</title>
<polygon fill="none" stroke="#000000" points="190,-78 190,-130 372,-130 372,-78 190,-78"/>
</g>
<g id="clust10" class="cluster">
<title>cluster_SolicitudesModule_providers</title>
<polygon fill="none" stroke="#000000" points="16,-78 16,-130 182,-130 182,-78 16,-78"/>
</g>
<!-- SolicitudAddErrorComponent -->
<g id="node1" class="node">
<title>SolicitudAddErrorComponent</title>
<polygon fill="#ffffb3" stroke="#000000" points="1128.5336,-122 943.4664,-122 943.4664,-86 1128.5336,-86 1128.5336,-122"/>
<text text-anchor="middle" x="1036" y="-99.8" font-family="Times,serif" font-size="14.00" fill="#000000">SolicitudAddErrorComponent</text>
</g>
<!-- SolicitudesModule -->
<g id="node5" class="node">
<title>SolicitudesModule</title>
<polygon fill="#8dd3c7" stroke="#000000" points="623.7688,-187 620.7688,-191 599.7688,-191 596.7688,-187 502.2312,-187 502.2312,-151 623.7688,-151 623.7688,-187"/>
<text text-anchor="middle" x="563" y="-164.8" font-family="Times,serif" font-size="14.00" fill="#000000">SolicitudesModule</text>
</g>
<!-- SolicitudAddErrorComponent&#45;&gt;SolicitudesModule -->
<g id="edge1" class="edge">
<title>SolicitudAddErrorComponent&#45;&gt;SolicitudesModule</title>
<path fill="none" stroke="#000000" d="M1036,-122.2843C1036,-143.3211 1036,-175 1036,-175 1036,-175 633.8682,-175 633.8682,-175"/>
<polygon fill="#000000" stroke="#000000" points="633.8682,-171.5001 623.8682,-175 633.8681,-178.5001 633.8682,-171.5001"/>
</g>
<!-- SolicitudAddedComponent -->
<g id="node2" class="node">
<title>SolicitudAddedComponent</title>
<polygon fill="#ffffb3" stroke="#000000" points="925.7133,-122 756.2867,-122 756.2867,-86 925.7133,-86 925.7133,-122"/>
<text text-anchor="middle" x="841" y="-99.8" font-family="Times,serif" font-size="14.00" fill="#000000">SolicitudAddedComponent</text>
</g>
<!-- SolicitudAddedComponent&#45;&gt;SolicitudesModule -->
<g id="edge2" class="edge">
<title>SolicitudAddedComponent&#45;&gt;SolicitudesModule</title>
<path fill="none" stroke="#000000" d="M841,-122.0225C841,-139.3734 841,-163 841,-163 841,-163 634.0083,-163 634.0083,-163"/>
<polygon fill="#000000" stroke="#000000" points="634.0083,-159.5001 624.0083,-163 634.0082,-166.5001 634.0083,-159.5001"/>
</g>
<!-- SolicitudDetailComponent -->
<g id="node3" class="node">
<title>SolicitudDetailComponent</title>
<polygon fill="#ffffb3" stroke="#000000" points="738.0996,-122 571.9004,-122 571.9004,-86 738.0996,-86 738.0996,-122"/>
<text text-anchor="middle" x="655" y="-99.8" font-family="Times,serif" font-size="14.00" fill="#000000">SolicitudDetailComponent</text>
</g>
<!-- SolicitudDetailComponent&#45;&gt;SolicitudesModule -->
<g id="edge3" class="edge">
<title>SolicitudDetailComponent&#45;&gt;SolicitudesModule</title>
<path fill="none" stroke="#000000" d="M597.9173,-122.1061C597.9173,-122.1061 597.9173,-140.991 597.9173,-140.991"/>
<polygon fill="#000000" stroke="#000000" points="594.4173,-140.9909 597.9173,-150.991 601.4173,-140.991 594.4173,-140.9909"/>
</g>
<!-- SolicitudesListComponent -->
<g id="node4" class="node">
<title>SolicitudesListComponent</title>
<polygon fill="#ffffb3" stroke="#000000" points="553.8299,-122 388.1701,-122 388.1701,-86 553.8299,-86 553.8299,-122"/>
<text text-anchor="middle" x="471" y="-99.8" font-family="Times,serif" font-size="14.00" fill="#000000">SolicitudesListComponent</text>
</g>
<!-- SolicitudesListComponent&#45;&gt;SolicitudesModule -->
<g id="edge4" class="edge">
<title>SolicitudesListComponent&#45;&gt;SolicitudesModule</title>
<path fill="none" stroke="#000000" d="M527.8903,-122.1061C527.8903,-122.1061 527.8903,-140.991 527.8903,-140.991"/>
<polygon fill="#000000" stroke="#000000" points="524.3903,-140.9909 527.8903,-150.991 531.3903,-140.991 524.3903,-140.9909"/>
</g>
<!-- SolicitudesRoutingModule -->
<g id="node6" class="node">
<title>SolicitudesRoutingModule</title>
<polygon fill="#8dd3c7" stroke="#000000" points="364.3864,-122 361.3864,-126 340.3864,-126 337.3864,-122 197.6136,-122 197.6136,-86 364.3864,-86 364.3864,-122"/>
<text text-anchor="middle" x="281" y="-99.8" font-family="Times,serif" font-size="14.00" fill="#000000">SolicitudesRoutingModule</text>
</g>
<!-- SolicitudesRoutingModule&#45;&gt;SolicitudesModule -->
<g id="edge5" class="edge">
<title>SolicitudesRoutingModule&#45;&gt;SolicitudesModule</title>
<path fill="none" stroke="#000000" d="M281,-122.0225C281,-139.3734 281,-163 281,-163 281,-163 492.1574,-163 492.1574,-163"/>
<polygon fill="#000000" stroke="#000000" points="492.1574,-166.5001 502.1574,-163 492.1574,-159.5001 492.1574,-166.5001"/>
</g>
<!-- SolicitudService -->
<g id="node7" class="node">
<title>SolicitudService</title>
<ellipse fill="#fdb462" stroke="#000000" cx="99" cy="-104" rx="74.7342" ry="18"/>
<text text-anchor="middle" x="99" y="-99.8" font-family="Times,serif" font-size="14.00" fill="#000000">SolicitudService</text>
</g>
<!-- SolicitudService&#45;&gt;SolicitudesModule -->
<g id="edge6" class="edge">
<title>SolicitudService&#45;&gt;SolicitudesModule</title>
<path fill="none" stroke="#000000" d="M99,-122.2843C99,-143.3211 99,-175 99,-175 99,-175 491.863,-175 491.863,-175"/>
<polygon fill="#000000" stroke="#000000" points="491.863,-178.5001 501.863,-175 491.8629,-171.5001 491.863,-178.5001"/>
</g>
</g>
</svg>
