<?xml version="1.0" encoding="UTF-8" standalone="no"?>
<!DOCTYPE svg PUBLIC "-//W3C//DTD SVG 1.1//EN"
 "http://www.w3.org/Graphics/SVG/1.1/DTD/svg11.dtd">
<!-- Generated by graphviz version 2.40.1 (20161225.0304)
 -->
<!-- Title: dependencies Pages: 1 -->
<svg width="580pt" height="211pt"
 viewBox="0.00 0.00 580.00 211.00" xmlns="http://www.w3.org/2000/svg" xmlns:xlink="http://www.w3.org/1999/xlink">
<g id="graph0" class="graph" transform="scale(1 1) rotate(0) translate(4 207)">
<title>dependencies</title>
<polygon fill="#ffffff" stroke="transparent" points="-4,4 -4,-207 576,-207 576,4 -4,4"/>
<text text-anchor="start" x="265.0091" y="-42.4" font-family="sans-serif" font-weight="bold" font-size="14.00" fill="#000000">Legend</text>
<polygon fill="#ffffb3" stroke="transparent" points="52,-10 52,-30 72,-30 72,-10 52,-10"/>
<text text-anchor="start" x="75.629" y="-15.4" font-family="sans-serif" font-size="14.00" fill="#000000"> &#160;Declarations</text>
<polygon fill="#8dd3c7" stroke="transparent" points="165,-10 165,-30 185,-30 185,-10 165,-10"/>
<text text-anchor="start" x="188.7251" y="-15.4" font-family="sans-serif" font-size="14.00" fill="#000000"> &#160;Module</text>
<polygon fill="#80b1d3" stroke="transparent" points="251,-10 251,-30 271,-30 271,-10 251,-10"/>
<text text-anchor="start" x="274.7812" y="-15.4" font-family="sans-serif" font-size="14.00" fill="#000000"> &#160;Bootstrap</text>
<polygon fill="#fdb462" stroke="transparent" points="348,-10 348,-30 368,-30 368,-10 348,-10"/>
<text text-anchor="start" x="371.6732" y="-15.4" font-family="sans-serif" font-size="14.00" fill="#000000"> &#160;Providers</text>
<polygon fill="#fb8072" stroke="transparent" points="444,-10 444,-30 464,-30 464,-10 444,-10"/>
<text text-anchor="start" x="467.7258" y="-15.4" font-family="sans-serif" font-size="14.00" fill="#000000"> &#160;Exports</text>
<g id="clust1" class="cluster">
<title>cluster_ReformasModule</title>
<polygon fill="none" stroke="#000000" stroke-dasharray="1,5" points="8,-70 8,-195 564,-195 564,-70 8,-70"/>
</g>
<g id="clust2" class="cluster">
<title>cluster_ReformasModule_declarations</title>
<polygon fill="none" stroke="#000000" points="200,-78 200,-130 556,-130 556,-78 200,-78"/>
</g>
<g id="clust5" class="cluster">
<title>cluster_ReformasModule_imports</title>
<polygon fill="none" stroke="#000000" points="16,-78 16,-130 192,-130 192,-78 16,-78"/>
</g>
<!-- ReformaDetailComponent -->
<g id="node1" class="node">
<title>ReformaDetailComponent</title>
<polygon fill="#ffffb3" stroke="#000000" points="548.0183,-122 383.9817,-122 383.9817,-86 548.0183,-86 548.0183,-122"/>
<text text-anchor="middle" x="466" y="-99.8" font-family="Times,serif" font-size="14.00" fill="#000000">ReformaDetailComponent</text>
</g>
<!-- ReformasModule -->
<g id="node3" class="node">
<title>ReformasModule</title>
<polygon fill="#8dd3c7" stroke="#000000" points="343.972,-187 340.972,-191 319.972,-191 316.972,-187 230.028,-187 230.028,-151 343.972,-151 343.972,-187"/>
<text text-anchor="middle" x="287" y="-164.8" font-family="Times,serif" font-size="14.00" fill="#000000">ReformasModule</text>
</g>
<!-- ReformaDetailComponent&#45;&gt;ReformasModule -->
<g id="edge1" class="edge">
<title>ReformaDetailComponent&#45;&gt;ReformasModule</title>
<path fill="none" stroke="#000000" d="M466,-122.1061C466,-141.3391 466,-169 466,-169 466,-169 354.1289,-169 354.1289,-169"/>
<polygon fill="#000000" stroke="#000000" points="354.1289,-165.5001 344.1289,-169 354.1288,-172.5001 354.1289,-165.5001"/>
</g>
<!-- ReformasListComponent -->
<g id="node2" class="node">
<title>ReformasListComponent</title>
<polygon fill="#ffffb3" stroke="#000000" points="365.5337,-122 208.4663,-122 208.4663,-86 365.5337,-86 365.5337,-122"/>
<text text-anchor="middle" x="287" y="-99.8" font-family="Times,serif" font-size="14.00" fill="#000000">ReformasListComponent</text>
</g>
<!-- ReformasListComponent&#45;&gt;ReformasModule -->
<g id="edge2" class="edge">
<title>ReformasListComponent&#45;&gt;ReformasModule</title>
<path fill="none" stroke="#000000" d="M287,-122.1061C287,-122.1061 287,-140.991 287,-140.991"/>
<polygon fill="#000000" stroke="#000000" points="283.5001,-140.9909 287,-150.991 290.5001,-140.991 283.5001,-140.9909"/>
</g>
<!-- ReformasRoutingModule -->
<g id="node4" class="node">
<title>ReformasRoutingModule</title>
<polygon fill="#8dd3c7" stroke="#000000" points="183.5898,-122 180.5898,-126 159.5898,-126 156.5898,-122 24.4102,-122 24.4102,-86 183.5898,-86 183.5898,-122"/>
<text text-anchor="middle" x="104" y="-99.8" font-family="Times,serif" font-size="14.00" fill="#000000">ReformasRoutingModule</text>
</g>
<!-- ReformasRoutingModule&#45;&gt;ReformasModule -->
<g id="edge3" class="edge">
<title>ReformasRoutingModule&#45;&gt;ReformasModule</title>
<path fill="none" stroke="#000000" d="M104,-122.1061C104,-141.3391 104,-169 104,-169 104,-169 219.8504,-169 219.8504,-169"/>
<polygon fill="#000000" stroke="#000000" points="219.8504,-172.5001 229.8504,-169 219.8504,-165.5001 219.8504,-172.5001"/>
</g>
</g>
</svg>
