<?xml version="1.0" encoding="UTF-8" standalone="no"?>
<!DOCTYPE svg PUBLIC "-//W3C//DTD SVG 1.1//EN"
 "http://www.w3.org/Graphics/SVG/1.1/DTD/svg11.dtd">
<!-- Generated by graphviz version 2.40.1 (20161225.0304)
 -->
<!-- Title: dependencies Pages: 1 -->
<svg width="1506pt" height="211pt"
 viewBox="0.00 0.00 1506.00 211.00" xmlns="http://www.w3.org/2000/svg" xmlns:xlink="http://www.w3.org/1999/xlink">
<g id="graph0" class="graph" transform="scale(1 1) rotate(0) translate(4 207)">
<title>dependencies</title>
<polygon fill="#ffffff" stroke="transparent" points="-4,4 -4,-207 1502,-207 1502,4 -4,4"/>
<text text-anchor="start" x="728.0091" y="-42.4" font-family="sans-serif" font-weight="bold" font-size="14.00" fill="#000000">Legend</text>
<polygon fill="#ffffb3" stroke="transparent" points="515,-10 515,-30 535,-30 535,-10 515,-10"/>
<text text-anchor="start" x="538.629" y="-15.4" font-family="sans-serif" font-size="14.00" fill="#000000"> &#160;Declarations</text>
<polygon fill="#8dd3c7" stroke="transparent" points="628,-10 628,-30 648,-30 648,-10 628,-10"/>
<text text-anchor="start" x="651.7251" y="-15.4" font-family="sans-serif" font-size="14.00" fill="#000000"> &#160;Module</text>
<polygon fill="#80b1d3" stroke="transparent" points="714,-10 714,-30 734,-30 734,-10 714,-10"/>
<text text-anchor="start" x="737.7812" y="-15.4" font-family="sans-serif" font-size="14.00" fill="#000000"> &#160;Bootstrap</text>
<polygon fill="#fdb462" stroke="transparent" points="811,-10 811,-30 831,-30 831,-10 811,-10"/>
<text text-anchor="start" x="834.6732" y="-15.4" font-family="sans-serif" font-size="14.00" fill="#000000"> &#160;Providers</text>
<polygon fill="#fb8072" stroke="transparent" points="907,-10 907,-30 927,-30 927,-10 907,-10"/>
<text text-anchor="start" x="930.7258" y="-15.4" font-family="sans-serif" font-size="14.00" fill="#000000"> &#160;Exports</text>
<g id="clust1" class="cluster">
<title>cluster_AdminModule</title>
<polygon fill="none" stroke="#000000" stroke-dasharray="1,5" points="8,-70 8,-195 1490,-195 1490,-70 8,-70"/>
</g>
<g id="clust2" class="cluster">
<title>cluster_AdminModule_declarations</title>
<polygon fill="none" stroke="#000000" points="184,-78 184,-130 1482,-130 1482,-78 184,-78"/>
</g>
<g id="clust11" class="cluster">
<title>cluster_AdminModule_imports</title>
<polygon fill="none" stroke="#000000" points="16,-78 16,-130 176,-130 176,-78 16,-78"/>
</g>
<!-- ComentarioComponent -->
<g id="node1" class="node">
<title>ComentarioComponent</title>
<polygon fill="#ffffb3" stroke="#000000" points="1473.9312,-122 1326.0688,-122 1326.0688,-86 1473.9312,-86 1473.9312,-122"/>
<text text-anchor="middle" x="1400" y="-99.8" font-family="Times,serif" font-size="14.00" fill="#000000">ComentarioComponent</text>
</g>
<!-- AdminModule -->
<g id="node9" class="node">
<title>AdminModule</title>
<polygon fill="#8dd3c7" stroke="#000000" points="801.4386,-187 798.4386,-191 777.4386,-191 774.4386,-187 702.5614,-187 702.5614,-151 801.4386,-151 801.4386,-187"/>
<text text-anchor="middle" x="752" y="-164.8" font-family="Times,serif" font-size="14.00" fill="#000000">AdminModule</text>
</g>
<!-- ComentarioComponent&#45;&gt;AdminModule -->
<g id="edge1" class="edge">
<title>ComentarioComponent&#45;&gt;AdminModule</title>
<path fill="none" stroke="#000000" d="M1400,-122.0109C1400,-144.4852 1400,-180 1400,-180 1400,-180 811.2372,-180 811.2372,-180"/>
<polygon fill="#000000" stroke="#000000" points="811.2372,-176.5001 801.2372,-180 811.2371,-183.5001 811.2372,-176.5001"/>
</g>
<!-- ComentariosComponent -->
<g id="node2" class="node">
<title>ComentariosComponent</title>
<polygon fill="#ffffb3" stroke="#000000" points="1308.3753,-122 1155.6247,-122 1155.6247,-86 1308.3753,-86 1308.3753,-122"/>
<text text-anchor="middle" x="1232" y="-99.8" font-family="Times,serif" font-size="14.00" fill="#000000">ComentariosComponent</text>
</g>
<!-- ComentariosComponent&#45;&gt;AdminModule -->
<g id="edge2" class="edge">
<title>ComentariosComponent&#45;&gt;AdminModule</title>
<path fill="none" stroke="#000000" d="M1232,-122.1289C1232,-142.5724 1232,-173 1232,-173 1232,-173 811.5605,-173 811.5605,-173"/>
<polygon fill="#000000" stroke="#000000" points="811.5606,-169.5001 801.5605,-173 811.5605,-176.5001 811.5606,-169.5001"/>
</g>
<!-- PerfilAdminComponent -->
<g id="node3" class="node">
<title>PerfilAdminComponent</title>
<polygon fill="#ffffb3" stroke="#000000" points="1137.8201,-122 986.1799,-122 986.1799,-86 1137.8201,-86 1137.8201,-122"/>
<text text-anchor="middle" x="1062" y="-99.8" font-family="Times,serif" font-size="14.00" fill="#000000">PerfilAdminComponent</text>
</g>
<!-- PerfilAdminComponent&#45;&gt;AdminModule -->
<g id="edge3" class="edge">
<title>PerfilAdminComponent&#45;&gt;AdminModule</title>
<path fill="none" stroke="#000000" d="M1062,-122.2667C1062,-140.5552 1062,-166 1062,-166 1062,-166 811.4632,-166 811.4632,-166"/>
<polygon fill="#000000" stroke="#000000" points="811.4632,-162.5001 801.4632,-166 811.4632,-169.5001 811.4632,-162.5001"/>
</g>
<!-- PerfilEditComponent -->
<g id="node4" class="node">
<title>PerfilEditComponent</title>
<polygon fill="#ffffb3" stroke="#000000" points="967.766,-122 832.234,-122 832.234,-86 967.766,-86 967.766,-122"/>
<text text-anchor="middle" x="900" y="-99.8" font-family="Times,serif" font-size="14.00" fill="#000000">PerfilEditComponent</text>
</g>
<!-- PerfilEditComponent&#45;&gt;AdminModule -->
<g id="edge4" class="edge">
<title>PerfilEditComponent&#45;&gt;AdminModule</title>
<path fill="none" stroke="#000000" d="M900,-122.0091C900,-138.0494 900,-159 900,-159 900,-159 811.2819,-159 811.2819,-159"/>
<polygon fill="#000000" stroke="#000000" points="811.2819,-155.5001 801.2819,-159 811.2818,-162.5001 811.2819,-155.5001"/>
</g>
<!-- PerfilesComponent -->
<g id="node5" class="node">
<title>PerfilesComponent</title>
<polygon fill="#ffffb3" stroke="#000000" points="814.0912,-122 689.9088,-122 689.9088,-86 814.0912,-86 814.0912,-122"/>
<text text-anchor="middle" x="752" y="-99.8" font-family="Times,serif" font-size="14.00" fill="#000000">PerfilesComponent</text>
</g>
<!-- PerfilesComponent&#45;&gt;AdminModule -->
<g id="edge5" class="edge">
<title>PerfilesComponent&#45;&gt;AdminModule</title>
<path fill="none" stroke="#000000" d="M752,-122.1061C752,-122.1061 752,-140.991 752,-140.991"/>
<polygon fill="#000000" stroke="#000000" points="748.5001,-140.9909 752,-150.991 755.5001,-140.991 748.5001,-140.9909"/>
</g>
<!-- TiposDocumentsComponent -->
<g id="node6" class="node">
<title>TiposDocumentsComponent</title>
<polygon fill="#ffffb3" stroke="#000000" points="671.4818,-122 494.5182,-122 494.5182,-86 671.4818,-86 671.4818,-122"/>
<text text-anchor="middle" x="583" y="-99.8" font-family="Times,serif" font-size="14.00" fill="#000000">TiposDocumentsComponent</text>
</g>
<!-- TiposDocumentsComponent&#45;&gt;AdminModule -->
<g id="edge6" class="edge">
<title>TiposDocumentsComponent&#45;&gt;AdminModule</title>
<path fill="none" stroke="#000000" d="M583,-122.0091C583,-138.0494 583,-159 583,-159 583,-159 692.6639,-159 692.6639,-159"/>
<polygon fill="#000000" stroke="#000000" points="692.6639,-162.5001 702.6639,-159 692.6639,-155.5001 692.6639,-162.5001"/>
</g>
<!-- UnidadesComponent -->
<g id="node7" class="node">
<title>UnidadesComponent</title>
<polygon fill="#ffffb3" stroke="#000000" points="476.2036,-122 341.7964,-122 341.7964,-86 476.2036,-86 476.2036,-122"/>
<text text-anchor="middle" x="409" y="-99.8" font-family="Times,serif" font-size="14.00" fill="#000000">UnidadesComponent</text>
</g>
<!-- UnidadesComponent&#45;&gt;AdminModule -->
<g id="edge7" class="edge">
<title>UnidadesComponent&#45;&gt;AdminModule</title>
<path fill="none" stroke="#000000" d="M409,-122.2667C409,-140.5552 409,-166 409,-166 409,-166 692.4912,-166 692.4912,-166"/>
<polygon fill="#000000" stroke="#000000" points="692.4912,-169.5001 702.4912,-166 692.4911,-162.5001 692.4912,-169.5001"/>
</g>
<!-- UsuariosComponent -->
<g id="node8" class="node">
<title>UsuariosComponent</title>
<polygon fill="#ffffb3" stroke="#000000" points="323.594,-122 192.406,-122 192.406,-86 323.594,-86 323.594,-122"/>
<text text-anchor="middle" x="258" y="-99.8" font-family="Times,serif" font-size="14.00" fill="#000000">UsuariosComponent</text>
</g>
<!-- UsuariosComponent&#45;&gt;AdminModule -->
<g id="edge8" class="edge">
<title>UsuariosComponent&#45;&gt;AdminModule</title>
<path fill="none" stroke="#000000" d="M258,-122.1289C258,-142.5724 258,-173 258,-173 258,-173 692.3716,-173 692.3716,-173"/>
<polygon fill="#000000" stroke="#000000" points="692.3716,-176.5001 702.3716,-173 692.3715,-169.5001 692.3716,-176.5001"/>
</g>
<!-- AdminRoutingModule -->
<g id="node10" class="node">
<title>AdminRoutingModule</title>
<polygon fill="#8dd3c7" stroke="#000000" points="167.5561,-122 164.5561,-126 143.5561,-126 140.5561,-122 24.4439,-122 24.4439,-86 167.5561,-86 167.5561,-122"/>
<text text-anchor="middle" x="96" y="-99.8" font-family="Times,serif" font-size="14.00" fill="#000000">AdminRoutingModule</text>
</g>
<!-- AdminRoutingModule&#45;&gt;AdminModule -->
<g id="edge9" class="edge">
<title>AdminRoutingModule&#45;&gt;AdminModule</title>
<path fill="none" stroke="#000000" d="M96,-122.0109C96,-144.4852 96,-180 96,-180 96,-180 692.6934,-180 692.6934,-180"/>
<polygon fill="#000000" stroke="#000000" points="692.6934,-183.5001 702.6934,-180 692.6933,-176.5001 692.6934,-183.5001"/>
</g>
</g>
</svg>
