<?xml version="1.0" encoding="UTF-8" standalone="no"?>
<!DOCTYPE svg PUBLIC "-//W3C//DTD SVG 1.1//EN"
 "http://www.w3.org/Graphics/SVG/1.1/DTD/svg11.dtd">
<!-- Generated by graphviz version 2.40.1 (20161225.0304)
 -->
<!-- Title: dependencies Pages: 1 -->
<svg width="589pt" height="284pt"
 viewBox="0.00 0.00 589.00 284.00" xmlns="http://www.w3.org/2000/svg" xmlns:xlink="http://www.w3.org/1999/xlink">
<g id="graph0" class="graph" transform="scale(1 1) rotate(0) translate(4 280)">
<title>dependencies</title>
<polygon fill="#ffffff" stroke="transparent" points="-4,4 -4,-280 585,-280 585,4 -4,4"/>
<text text-anchor="start" x="269.5091" y="-42.4" font-family="sans-serif" font-weight="bold" font-size="14.00" fill="#000000">Legend</text>
<polygon fill="#ffffb3" stroke="transparent" points="56.5,-10 56.5,-30 76.5,-30 76.5,-10 56.5,-10"/>
<text text-anchor="start" x="80.129" y="-15.4" font-family="sans-serif" font-size="14.00" fill="#000000"> &#160;Declarations</text>
<polygon fill="#8dd3c7" stroke="transparent" points="169.5,-10 169.5,-30 189.5,-30 189.5,-10 169.5,-10"/>
<text text-anchor="start" x="193.2251" y="-15.4" font-family="sans-serif" font-size="14.00" fill="#000000"> &#160;Module</text>
<polygon fill="#80b1d3" stroke="transparent" points="255.5,-10 255.5,-30 275.5,-30 275.5,-10 255.5,-10"/>
<text text-anchor="start" x="279.2812" y="-15.4" font-family="sans-serif" font-size="14.00" fill="#000000"> &#160;Bootstrap</text>
<polygon fill="#fdb462" stroke="transparent" points="352.5,-10 352.5,-30 372.5,-30 372.5,-10 352.5,-10"/>
<text text-anchor="start" x="376.1732" y="-15.4" font-family="sans-serif" font-size="14.00" fill="#000000"> &#160;Providers</text>
<polygon fill="#fb8072" stroke="transparent" points="448.5,-10 448.5,-30 468.5,-30 468.5,-10 448.5,-10"/>
<text text-anchor="start" x="472.2258" y="-15.4" font-family="sans-serif" font-size="14.00" fill="#000000"> &#160;Exports</text>
<g id="clust1" class="cluster">
<title>cluster_AppModule</title>
<polygon fill="none" stroke="#000000" stroke-dasharray="1,5" points="8,-70 8,-268 573,-268 573,-70 8,-70"/>
</g>
<g id="clust2" class="cluster">
<title>cluster_AppModule_declarations</title>
<polygon fill="none" stroke="#000000" points="16,-78 16,-130 565,-130 565,-78 16,-78"/>
</g>
<g id="clust9" class="cluster">
<title>cluster_AppModule_bootstrap</title>
<polygon fill="none" stroke="#000000" points="243,-208 243,-260 367,-260 367,-208 243,-208"/>
</g>
<!-- AppComponent -->
<g id="node1" class="node">
<title>AppComponent</title>
<polygon fill="#ffffb3" stroke="#000000" points="556.9399,-122 451.0601,-122 451.0601,-86 556.9399,-86 556.9399,-122"/>
<text text-anchor="middle" x="504" y="-99.8" font-family="Times,serif" font-size="14.00" fill="#000000">AppComponent</text>
</g>
<!-- AppModule -->
<g id="node5" class="node">
<title>AppModule</title>
<polygon fill="#8dd3c7" stroke="#000000" points="346.6571,-187 343.6571,-191 322.6571,-191 319.6571,-187 263.3429,-187 263.3429,-151 346.6571,-151 346.6571,-187"/>
<text text-anchor="middle" x="305" y="-164.8" font-family="Times,serif" font-size="14.00" fill="#000000">AppModule</text>
</g>
<!-- AppComponent&#45;&gt;AppModule -->
<g id="edge1" class="edge">
<title>AppComponent&#45;&gt;AppModule</title>
<path fill="none" stroke="#000000" d="M504,-122.1061C504,-141.3391 504,-169 504,-169 504,-169 356.7169,-169 356.7169,-169"/>
<polygon fill="#000000" stroke="#000000" points="356.717,-165.5001 346.7169,-169 356.7169,-172.5001 356.717,-165.5001"/>
</g>
<!-- ErrorComponent -->
<g id="node2" class="node">
<title>ErrorComponent</title>
<polygon fill="#ffffb3" stroke="#000000" points="433.3669,-122 322.6331,-122 322.6331,-86 433.3669,-86 433.3669,-122"/>
<text text-anchor="middle" x="378" y="-99.8" font-family="Times,serif" font-size="14.00" fill="#000000">ErrorComponent</text>
</g>
<!-- ErrorComponent&#45;&gt;AppModule -->
<g id="edge2" class="edge">
<title>ErrorComponent&#45;&gt;AppModule</title>
<path fill="none" stroke="#000000" d="M334.6974,-122.1061C334.6974,-122.1061 334.6974,-140.991 334.6974,-140.991"/>
<polygon fill="#000000" stroke="#000000" points="331.1975,-140.9909 334.6974,-150.991 338.1975,-140.991 331.1975,-140.9909"/>
</g>
<!-- FechaNotificacionPipe -->
<g id="node3" class="node">
<title>FechaNotificacionPipe</title>
<polygon fill="#ffffb3" stroke="#000000" points="304.2879,-122 159.7121,-122 159.7121,-86 304.2879,-86 304.2879,-122"/>
<text text-anchor="middle" x="232" y="-99.8" font-family="Times,serif" font-size="14.00" fill="#000000">FechaNotificacionPipe</text>
</g>
<!-- FechaNotificacionPipe&#45;&gt;AppModule -->
<g id="edge3" class="edge">
<title>FechaNotificacionPipe&#45;&gt;AppModule</title>
<path fill="none" stroke="#000000" d="M283.6578,-122.1061C283.6578,-122.1061 283.6578,-140.991 283.6578,-140.991"/>
<polygon fill="#000000" stroke="#000000" points="280.1579,-140.9909 283.6578,-150.991 287.1579,-140.991 280.1579,-140.9909"/>
</g>
<!-- FooterComponent -->
<g id="node4" class="node">
<title>FooterComponent</title>
<polygon fill="#ffffb3" stroke="#000000" points="141.8809,-122 24.1191,-122 24.1191,-86 141.8809,-86 141.8809,-122"/>
<text text-anchor="middle" x="83" y="-99.8" font-family="Times,serif" font-size="14.00" fill="#000000">FooterComponent</text>
</g>
<!-- FooterComponent&#45;&gt;AppModule -->
<g id="edge4" class="edge">
<title>FooterComponent&#45;&gt;AppModule</title>
<path fill="none" stroke="#000000" d="M83,-122.1061C83,-141.3391 83,-169 83,-169 83,-169 253.2435,-169 253.2435,-169"/>
<polygon fill="#000000" stroke="#000000" points="253.2435,-172.5001 263.2435,-169 253.2435,-165.5001 253.2435,-172.5001"/>
</g>
<!-- AppComponent  -->
<g id="node6" class="node">
<title>AppComponent </title>
<polygon fill="#80b1d3" stroke="#000000" points="359.439,-252 250.561,-252 250.561,-216 359.439,-216 359.439,-252"/>
<text text-anchor="middle" x="305" y="-229.8" font-family="Times,serif" font-size="14.00" fill="#000000">AppComponent </text>
</g>
<!-- AppModule&#45;&gt;AppComponent  -->
<g id="edge5" class="edge">
<title>AppModule&#45;&gt;AppComponent </title>
<path fill="none" stroke="#000000" stroke-dasharray="1,5" d="M305,-187.1061C305,-187.1061 305,-205.991 305,-205.991"/>
<polygon fill="#000000" stroke="#000000" points="301.5001,-205.9909 305,-215.991 308.5001,-205.991 301.5001,-205.9909"/>
</g>
</g>
</svg>
