<?xml version="1.0" encoding="UTF-8" standalone="no"?>
<!DOCTYPE svg PUBLIC "-//W3C//DTD SVG 1.1//EN"
 "http://www.w3.org/Graphics/SVG/1.1/DTD/svg11.dtd">
<!-- Generated by graphviz version 2.40.1 (20161225.0304)
 -->
<!-- Title: dependencies Pages: 1 -->
<svg width="926pt" height="211pt"
 viewBox="0.00 0.00 926.00 211.00" xmlns="http://www.w3.org/2000/svg" xmlns:xlink="http://www.w3.org/1999/xlink">
<g id="graph0" class="graph" transform="scale(1 1) rotate(0) translate(4 207)">
<title>dependencies</title>
<polygon fill="#ffffff" stroke="transparent" points="-4,4 -4,-207 922,-207 922,4 -4,4"/>
<text text-anchor="start" x="438.0091" y="-42.4" font-family="sans-serif" font-weight="bold" font-size="14.00" fill="#000000">Legend</text>
<polygon fill="#ffffb3" stroke="transparent" points="225,-10 225,-30 245,-30 245,-10 225,-10"/>
<text text-anchor="start" x="248.629" y="-15.4" font-family="sans-serif" font-size="14.00" fill="#000000"> &#160;Declarations</text>
<polygon fill="#8dd3c7" stroke="transparent" points="338,-10 338,-30 358,-30 358,-10 338,-10"/>
<text text-anchor="start" x="361.7251" y="-15.4" font-family="sans-serif" font-size="14.00" fill="#000000"> &#160;Module</text>
<polygon fill="#80b1d3" stroke="transparent" points="424,-10 424,-30 444,-30 444,-10 424,-10"/>
<text text-anchor="start" x="447.7812" y="-15.4" font-family="sans-serif" font-size="14.00" fill="#000000"> &#160;Bootstrap</text>
<polygon fill="#fdb462" stroke="transparent" points="521,-10 521,-30 541,-30 541,-10 521,-10"/>
<text text-anchor="start" x="544.6732" y="-15.4" font-family="sans-serif" font-size="14.00" fill="#000000"> &#160;Providers</text>
<polygon fill="#fb8072" stroke="transparent" points="617,-10 617,-30 637,-30 637,-10 617,-10"/>
<text text-anchor="start" x="640.7258" y="-15.4" font-family="sans-serif" font-size="14.00" fill="#000000"> &#160;Exports</text>
<g id="clust1" class="cluster">
<title>cluster_ProcesoModule</title>
<polygon fill="none" stroke="#000000" stroke-dasharray="1,5" points="8,-70 8,-195 910,-195 910,-70 8,-70"/>
</g>
<g id="clust2" class="cluster">
<title>cluster_ProcesoModule_declarations</title>
<polygon fill="none" stroke="#000000" points="324,-78 324,-130 902,-130 902,-78 324,-78"/>
</g>
<g id="clust7" class="cluster">
<title>cluster_ProcesoModule_imports</title>
<polygon fill="none" stroke="#000000" points="16,-78 16,-130 316,-130 316,-78 16,-78"/>
</g>
<!-- GenericForm -->
<g id="node1" class="node">
<title>GenericForm</title>
<polygon fill="#ffffb3" stroke="#000000" points="894.1361,-122 803.8639,-122 803.8639,-86 894.1361,-86 894.1361,-122"/>
<text text-anchor="middle" x="849" y="-99.8" font-family="Times,serif" font-size="14.00" fill="#000000">GenericForm</text>
</g>
<!-- ProcesoModule -->
<g id="node5" class="node">
<title>ProcesoModule</title>
<polygon fill="#8dd3c7" stroke="#000000" points="524.8669,-187 521.8669,-191 500.8669,-191 497.8669,-187 421.1331,-187 421.1331,-151 524.8669,-151 524.8669,-187"/>
<text text-anchor="middle" x="473" y="-164.8" font-family="Times,serif" font-size="14.00" fill="#000000">ProcesoModule</text>
</g>
<!-- GenericForm&#45;&gt;ProcesoModule -->
<g id="edge1" class="edge">
<title>GenericForm&#45;&gt;ProcesoModule</title>
<path fill="none" stroke="#000000" d="M849,-122.2843C849,-143.3211 849,-175 849,-175 849,-175 534.8864,-175 534.8864,-175"/>
<polygon fill="#000000" stroke="#000000" points="534.8865,-171.5001 524.8864,-175 534.8864,-178.5001 534.8865,-171.5001"/>
</g>
<!-- ProcesslistComponent -->
<g id="node2" class="node">
<title>ProcesslistComponent</title>
<polygon fill="#ffffb3" stroke="#000000" points="785.7106,-122 644.2894,-122 644.2894,-86 785.7106,-86 785.7106,-122"/>
<text text-anchor="middle" x="715" y="-99.8" font-family="Times,serif" font-size="14.00" fill="#000000">ProcesslistComponent</text>
</g>
<!-- ProcesslistComponent&#45;&gt;ProcesoModule -->
<g id="edge2" class="edge">
<title>ProcesslistComponent&#45;&gt;ProcesoModule</title>
<path fill="none" stroke="#000000" d="M715,-122.0225C715,-139.3734 715,-163 715,-163 715,-163 534.9151,-163 534.9151,-163"/>
<polygon fill="#000000" stroke="#000000" points="534.9151,-159.5001 524.9151,-163 534.915,-166.5001 534.9151,-159.5001"/>
</g>
<!-- StartProcessComponent -->
<g id="node3" class="node">
<title>StartProcessComponent</title>
<polygon fill="#ffffb3" stroke="#000000" points="626.0337,-122 475.9663,-122 475.9663,-86 626.0337,-86 626.0337,-122"/>
<text text-anchor="middle" x="551" y="-99.8" font-family="Times,serif" font-size="14.00" fill="#000000">StartProcessComponent</text>
</g>
<!-- StartProcessComponent&#45;&gt;ProcesoModule -->
<g id="edge3" class="edge">
<title>StartProcessComponent&#45;&gt;ProcesoModule</title>
<path fill="none" stroke="#000000" d="M500.3335,-122.1061C500.3335,-122.1061 500.3335,-140.991 500.3335,-140.991"/>
<polygon fill="#000000" stroke="#000000" points="496.8335,-140.9909 500.3335,-150.991 503.8335,-140.991 496.8335,-140.9909"/>
</g>
<!-- TasklistComponent -->
<g id="node4" class="node">
<title>TasklistComponent</title>
<polygon fill="#ffffb3" stroke="#000000" points="457.6611,-122 332.3389,-122 332.3389,-86 457.6611,-86 457.6611,-122"/>
<text text-anchor="middle" x="395" y="-99.8" font-family="Times,serif" font-size="14.00" fill="#000000">TasklistComponent</text>
</g>
<!-- TasklistComponent&#45;&gt;ProcesoModule -->
<g id="edge4" class="edge">
<title>TasklistComponent&#45;&gt;ProcesoModule</title>
<path fill="none" stroke="#000000" d="M439.4485,-122.1061C439.4485,-122.1061 439.4485,-140.991 439.4485,-140.991"/>
<polygon fill="#000000" stroke="#000000" points="435.9485,-140.9909 439.4485,-150.991 442.9485,-140.991 435.9485,-140.9909"/>
</g>
<!-- MyAddonModule -->
<g id="node6" class="node">
<title>MyAddonModule</title>
<polygon fill="#8dd3c7" stroke="#000000" points="307.601,-122 304.601,-126 283.601,-126 280.601,-122 190.399,-122 190.399,-86 307.601,-86 307.601,-122"/>
<text text-anchor="middle" x="249" y="-99.8" font-family="Times,serif" font-size="14.00" fill="#000000">MyAddonModule</text>
</g>
<!-- MyAddonModule&#45;&gt;ProcesoModule -->
<g id="edge5" class="edge">
<title>MyAddonModule&#45;&gt;ProcesoModule</title>
<path fill="none" stroke="#000000" d="M249,-122.0225C249,-139.3734 249,-163 249,-163 249,-163 411.0469,-163 411.0469,-163"/>
<polygon fill="#000000" stroke="#000000" points="411.0469,-166.5001 421.0469,-163 411.0468,-159.5001 411.0469,-166.5001"/>
</g>
<!-- ProcesoRoutingModule -->
<g id="node7" class="node">
<title>ProcesoRoutingModule</title>
<polygon fill="#8dd3c7" stroke="#000000" points="172.4846,-122 169.4846,-126 148.4846,-126 145.4846,-122 23.5154,-122 23.5154,-86 172.4846,-86 172.4846,-122"/>
<text text-anchor="middle" x="98" y="-99.8" font-family="Times,serif" font-size="14.00" fill="#000000">ProcesoRoutingModule</text>
</g>
<!-- ProcesoRoutingModule&#45;&gt;ProcesoModule -->
<g id="edge6" class="edge">
<title>ProcesoRoutingModule&#45;&gt;ProcesoModule</title>
<path fill="none" stroke="#000000" d="M98,-122.2843C98,-143.3211 98,-175 98,-175 98,-175 410.8579,-175 410.8579,-175"/>
<polygon fill="#000000" stroke="#000000" points="410.8579,-178.5001 420.8579,-175 410.8578,-171.5001 410.8579,-178.5001"/>
</g>
</g>
</svg>
