<?xml version="1.0" encoding="UTF-8" standalone="no"?>
<!DOCTYPE svg PUBLIC "-//W3C//DTD SVG 1.1//EN"
 "http://www.w3.org/Graphics/SVG/1.1/DTD/svg11.dtd">
<!-- Generated by graphviz version 2.40.1 (20161225.0304)
 -->
<!-- Title: dependencies Pages: 1 -->
<svg width="594pt" height="211pt"
 viewBox="0.00 0.00 594.00 211.00" xmlns="http://www.w3.org/2000/svg" xmlns:xlink="http://www.w3.org/1999/xlink">
<g id="graph0" class="graph" transform="scale(1 1) rotate(0) translate(4 207)">
<title>dependencies</title>
<polygon fill="#ffffff" stroke="transparent" points="-4,4 -4,-207 590,-207 590,4 -4,4"/>
<text text-anchor="start" x="272.0091" y="-42.4" font-family="sans-serif" font-weight="bold" font-size="14.00" fill="#000000">Legend</text>
<polygon fill="#ffffb3" stroke="transparent" points="59,-10 59,-30 79,-30 79,-10 59,-10"/>
<text text-anchor="start" x="82.629" y="-15.4" font-family="sans-serif" font-size="14.00" fill="#000000"> &#160;Declarations</text>
<polygon fill="#8dd3c7" stroke="transparent" points="172,-10 172,-30 192,-30 192,-10 172,-10"/>
<text text-anchor="start" x="195.7251" y="-15.4" font-family="sans-serif" font-size="14.00" fill="#000000"> &#160;Module</text>
<polygon fill="#80b1d3" stroke="transparent" points="258,-10 258,-30 278,-30 278,-10 258,-10"/>
<text text-anchor="start" x="281.7812" y="-15.4" font-family="sans-serif" font-size="14.00" fill="#000000"> &#160;Bootstrap</text>
<polygon fill="#fdb462" stroke="transparent" points="355,-10 355,-30 375,-30 375,-10 355,-10"/>
<text text-anchor="start" x="378.6732" y="-15.4" font-family="sans-serif" font-size="14.00" fill="#000000"> &#160;Providers</text>
<polygon fill="#fb8072" stroke="transparent" points="451,-10 451,-30 471,-30 471,-10 451,-10"/>
<text text-anchor="start" x="474.7258" y="-15.4" font-family="sans-serif" font-size="14.00" fill="#000000"> &#160;Exports</text>
<g id="clust1" class="cluster">
<title>cluster_InModule</title>
<polygon fill="none" stroke="#000000" stroke-dasharray="1,5" points="8,-70 8,-195 578,-195 578,-70 8,-70"/>
</g>
<g id="clust2" class="cluster">
<title>cluster_InModule_declarations</title>
<polygon fill="none" stroke="#000000" points="156,-78 156,-130 570,-130 570,-78 156,-78"/>
</g>
<g id="clust6" class="cluster">
<title>cluster_InModule_imports</title>
<polygon fill="none" stroke="#000000" points="16,-78 16,-130 148,-130 148,-78 16,-78"/>
</g>
<!-- ConfigComponent -->
<g id="node1" class="node">
<title>ConfigComponent</title>
<polygon fill="#ffffb3" stroke="#000000" points="562.2204,-122 441.7796,-122 441.7796,-86 562.2204,-86 562.2204,-122"/>
<text text-anchor="middle" x="502" y="-99.8" font-family="Times,serif" font-size="14.00" fill="#000000">ConfigComponent</text>
</g>
<!-- InModule -->
<g id="node4" class="node">
<title>InModule</title>
<polygon fill="#8dd3c7" stroke="#000000" points="324.7107,-187 321.7107,-191 300.7107,-191 297.7107,-187 253.2893,-187 253.2893,-151 324.7107,-151 324.7107,-187"/>
<text text-anchor="middle" x="289" y="-164.8" font-family="Times,serif" font-size="14.00" fill="#000000">InModule</text>
</g>
<!-- ConfigComponent&#45;&gt;InModule -->
<g id="edge1" class="edge">
<title>ConfigComponent&#45;&gt;InModule</title>
<path fill="none" stroke="#000000" d="M502,-122.1061C502,-141.3391 502,-169 502,-169 502,-169 334.6514,-169 334.6514,-169"/>
<polygon fill="#000000" stroke="#000000" points="334.6514,-165.5001 324.6514,-169 334.6514,-172.5001 334.6514,-165.5001"/>
</g>
<!-- EsriMapComponent -->
<g id="node2" class="node">
<title>EsriMapComponent</title>
<polygon fill="#ffffb3" stroke="#000000" points="423.5408,-122 294.4592,-122 294.4592,-86 423.5408,-86 423.5408,-122"/>
<text text-anchor="middle" x="359" y="-99.8" font-family="Times,serif" font-size="14.00" fill="#000000">EsriMapComponent</text>
</g>
<!-- EsriMapComponent&#45;&gt;InModule -->
<g id="edge2" class="edge">
<title>EsriMapComponent&#45;&gt;InModule</title>
<path fill="none" stroke="#000000" d="M309.4176,-122.1061C309.4176,-122.1061 309.4176,-140.991 309.4176,-140.991"/>
<polygon fill="#000000" stroke="#000000" points="305.9177,-140.9909 309.4176,-150.991 312.9177,-140.991 305.9177,-140.9909"/>
</g>
<!-- PerfilComponent -->
<g id="node3" class="node">
<title>PerfilComponent</title>
<polygon fill="#ffffb3" stroke="#000000" points="276.4328,-122 163.5672,-122 163.5672,-86 276.4328,-86 276.4328,-122"/>
<text text-anchor="middle" x="220" y="-99.8" font-family="Times,serif" font-size="14.00" fill="#000000">PerfilComponent</text>
</g>
<!-- PerfilComponent&#45;&gt;InModule -->
<g id="edge3" class="edge">
<title>PerfilComponent&#45;&gt;InModule</title>
<path fill="none" stroke="#000000" d="M264.8054,-122.1061C264.8054,-122.1061 264.8054,-140.991 264.8054,-140.991"/>
<polygon fill="#000000" stroke="#000000" points="261.3055,-140.9909 264.8054,-150.991 268.3055,-140.991 261.3055,-140.9909"/>
</g>
<!-- InRoutingModule -->
<g id="node5" class="node">
<title>InRoutingModule</title>
<polygon fill="#8dd3c7" stroke="#000000" points="140.3287,-122 137.3287,-126 116.3287,-126 113.3287,-122 23.6713,-122 23.6713,-86 140.3287,-86 140.3287,-122"/>
<text text-anchor="middle" x="82" y="-99.8" font-family="Times,serif" font-size="14.00" fill="#000000">InRoutingModule</text>
</g>
<!-- InRoutingModule&#45;&gt;InModule -->
<g id="edge4" class="edge">
<title>InRoutingModule&#45;&gt;InModule</title>
<path fill="none" stroke="#000000" d="M82,-122.1061C82,-141.3391 82,-169 82,-169 82,-169 242.9434,-169 242.9434,-169"/>
<polygon fill="#000000" stroke="#000000" points="242.9434,-172.5001 252.9434,-169 242.9433,-165.5001 242.9434,-172.5001"/>
</g>
</g>
</svg>
